<svg width="96" height="32" viewBox="0 0 96 32" fill="none" xmlns="http://www.w3.org/2000/svg">
  <path d="M18.32 24H15.08L9.68 14.84V24H6.64V8.28H9.88L15.28 17.44V8.28H18.32V24ZM29.3928 24.28C27.9261 24.28 26.6195 23.9467 25.4728 23.28C24.3395 22.6 23.4461 21.6533 22.7928 20.44C22.1528 19.2133 21.8328 17.8 21.8328 16.2C21.8328 14.6 22.1528 13.1933 22.7928 11.98C23.4461 10.7533 24.3395 9.8 25.4728 9.12C26.6195 8.44 27.9261 8.1 29.3928 8.1C30.8595 8.1 32.1595 8.44 33.2928 9.12C34.4261 9.8 35.3128 10.7533 35.9528 11.98C36.6061 13.1933 36.9328 14.6 36.9328 16.2C36.9328 17.8 36.6061 19.2133 35.9528 20.44C35.2995 21.6533 34.4128 22.6 33.2928 23.28C32.1728 23.9467 30.8728 24.28 29.3928 24.28ZM29.3928 21.56C30.3661 21.56 31.1928 21.3333 31.8728 20.88C32.5528 20.4267 33.0728 19.78 33.4328 18.94C33.7928 18.1 33.9728 17.1333 33.9728 16.04C33.9728 14.9467 33.7928 13.98 33.4328 13.14C33.0728 12.3 32.5595 11.6533 31.8928 11.2C31.2261 10.7467 30.3995 10.52 29.4128 10.52C28.4395 10.52 27.6128 10.7467 26.9328 11.2C26.2661 11.6533 25.7528 12.3 25.3928 13.14C25.0328 13.98 24.8528 14.9467 24.8528 16.04C24.8528 17.1333 25.0328 18.1 25.3928 18.94C25.7528 19.78 26.2661 20.4267 26.9328 20.88C27.6128 21.3333 28.4328 21.56 29.3928 21.56ZM46.399 24H39.459V8.28H46.239C47.7857 8.28 49.1124 8.58667 50.219 9.2C51.339 9.8 52.1924 10.6533 52.779 11.76C53.3657 12.8667 53.659 14.16 53.659 15.64C53.659 17.1333 53.3657 18.44 52.779 19.56C52.1924 20.6667 51.3324 21.52 50.199 22.12C49.079 22.7067 47.8524 24 46.399 24ZM42.499 21.32H46.239C47.239 21.32 48.0924 21.1333 48.759 20.76C49.4257 20.3733 49.919 19.8133 50.239 19.08C50.5724 18.3333 50.739 17.4533 50.739 16.44V14.84C50.739 13.8267 50.5724 12.9533 50.239 12.22C49.919 11.4733 49.4257 10.9067 48.759 10.52C48.0924 10.1333 47.239 9.94 46.199 9.94H42.499V21.32ZM59.5712 13.18C59.8912 12.3267 60.3645 11.6667 60.9912 11.2C61.6179 10.72 62.3779 10.48 63.2712 10.48V13.58H62.5112C61.4645 13.58 60.6779 13.84 60.1512 14.36C59.6379 14.88 59.3845 15.7533 59.3845 16.98V24H56.4312V10.68H59.5712V13.18Z" fill="#3AB4F2"/>
  <path d="M69.4481 24.28C68.1614 24.28 67.0148 24.02 66.0081 23.5C65.0148 22.9667 64.2348 22.2467 63.6681 21.34C63.1148 20.4333 62.8348 19.4 62.8348 18.24C62.8348 17.08 63.1148 16.0467 63.6681 15.14C64.2348 14.2333 65.0081 13.52 65.9881 13C66.9814 12.4667 68.1214 12.2 69.4081 12.2C70.6948 12.2 71.8214 12.4667 72.7881 13C73.7681 13.52 74.5348 14.2333 75.0881 15.14C75.6548 16.0467 75.9348 17.08 75.9348 18.24C75.9348 19.4 75.6548 20.4333 75.0881 21.34C74.5214 22.2467 73.7481 22.9667 72.7681 23.5C71.7881 24.02 70.6748 24.28 69.4481 24.28ZM69.4481 21.96C70.2281 21.96 70.9214 21.72 71.5281 21.24C72.1348 20.7467 72.4414 19.9933 72.4414 19C72.4414 18.0067 72.1348 17.2533 71.5281 16.76C70.9214 16.2667 70.2281 16.02 69.4481 16.02C68.6681 16.02 67.9748 16.2667 67.3681 16.76C66.7614 17.2533 66.4548 18.0067 66.4548 19C66.4548 19.9933 66.7614 20.7467 67.3681 21.24C67.9748 21.72 68.6681 21.96 69.4481 21.96ZM78.8484 9.48C78.2284 9.48 77.715 9.28667 77.3084 8.9C76.9017 8.5 76.6984 8.01333 76.6984 7.44C76.6984 6.85333 76.9017 6.36667 77.3084 5.98C77.715 5.58 78.2284 5.38 78.8484 5.38C79.455 5.38 79.9617 5.58 80.3684 5.98C80.775 6.36667 80.9784 6.85333 80.9784 7.44C80.9784 8.01333 80.775 8.5 80.3684 8.9C79.9617 9.28667 79.455 9.48 78.8484 9.48ZM77.3684 24V12.48H80.3084V24H77.3684ZM88.7934 24V7.16H91.7334V24H88.7934ZM94.1203 9.48C93.5003 9.48 92.987 9.28667 92.5803 8.9C92.1736 8.5 91.9703 8.01333 91.9703 7.44C91.9703 6.85333 92.1736 6.36667 92.5803 5.98C92.987 5.58 93.5003 5.38 94.1203 5.38C94.727 5.38 95.2336 5.58 95.6403 5.98C96.047 6.36667 96.2503 6.85333 96.2503 7.44C96.2503 8.01333 96.047 8.5 95.6403 8.9C95.2336 9.28667 94.727 9.48 94.1203 9.48ZM92.6403 24V12.48H95.5803V24H92.6403Z" fill="#2B3A67"/>
</svg>
